<svg viewBox="8 0 42 38" xmlns="http://www.w3.org/2000/svg">
    <path d="m14.572 13.32-2.078 3.221.33 2.634 1.473.167.235 1.63-1.477.055.365
            2.922 2.55 2.048M43.984 13.32l2.078 3.221-.329 2.634-1.474.167-.235
            1.63 1.478.055-.366 2.922-2.55 2.048"
        fill="#e1b13f"
        stroke="black"
        stroke-width=".8"
        stroke-linecap="round"
        stroke-linejoin="round" />
    <path d="M18.776 31.209s-6.17-8.887-4.178-18.133C16.61 3.73 29.293 3.788
            29.293 3.788s12.683-.058 14.695 9.288c1.99 9.246-4.179 18.133-4.179
            18.133H29.292z"
            fill="#feca4c"
            stroke="black"
            stroke-width=".8"
            stroke-linecap="round"
            stroke-linejoin="round" />
    <path d="M19.63 6.41c-4.994 2.839-4.803 5.831-5.332 7.811l.01.029c-1.6 3.765
        3.966 16.955 3.966 16.955h7.38c-5.143-.169-11.813-9.9-10.007-16.174
        2.46-5.078 9.853-4.1 13.634-1.249 4.367-2.899 11.51-3.977 15.032 3.176 0
        0 .48-2.643-.081-3.11-.561-.469-2.9-3.462-7.764-3.65-3.689-.141-6.055
        1.653-7.187 2.366-1.151-1.321-4.163-2.525-6.877-2.556-2.2-.025
        -3.814.311-5.441 1.577-.06-.21-1.174-1.142 2.666-5.175z"
        fill="#e1b13f" />
    <path d="M43.984 13.072S42.002.397 29.29.397c-12.713 0-14.695 12.675-14.695
        12.675S15.95 3.74 29.29 3.784c13.34.044 14.695 9.288 14.695 9.288z"
        fill="#feca4c"
        stroke="black"
        stroke-width=".8"
        stroke-linecap="round"
        stroke-linejoin="round" />
    <path d="M28.584 1.998a.708.708 0 0 0 .708.708.708.708 0 0 0 .708-.708.708
        .708 0 0 0-.708-.708.708.708 0 0 0-.708.708Z"
        fill="#fada8e"
        stroke="black"
        stroke-width=".8"
        stroke-linecap="round"
        stroke-linejoin="round"
        paint-order="fill markers stroke" />
    <path d="m30.904 26.619-1.614-.246-1.613.246 1.405-1.294z"
        fill="#e1b13f" />
    <path d="m27.474 26.379 1.816-1.049 1.822 1.049"
        fill="none"
        stroke="black"
        stroke-width=".8"
        stroke-linecap="round"
        stroke-linejoin="round" />
    <path d="M23.671 4.565s10.032.159 13.826 3.295c3.793 3.136 6.408 5.846 6.408
        5.846s.982-2.245-1.964-5.004c-6.453-4.943-10.957-5.524-18.27-4.137z"
        fill="#fed46d" />
    <path d="M101.96 85.098c-.006 0-3.227-.017-6.717 1.16-3.493 1.178-7.32 3.601
        -8.363 8.442-2.038 9.462 4.24 18.443 4.24 18.443a.397.397 0 0 0 .326.17
        h21.033a.397.397 0 0 0 .326-.17s6.278-8.981 4.24-18.443c-1.042-4.841
        -4.87-7.264-8.363-8.442-3.49-1.176-6.712-1.16-6.718-1.16zm0 .795a.397
        .397 0 0 0 .004 0s3.114-.013 6.465 1.117c3.35 1.13 6.872 3.353 7.842
        7.858 1.89 8.776-3.694 17.179-4.014 17.652H91.669c-.32-.474-5.904-8.876
        -4.014-17.652.97-4.505 4.491-6.728 7.842-7.858s6.463-1.117 6.463-1.117z"
        color="#000"
        fill="black"
        transform="translate(-72.666 -81.711)" />
    <path d="M19.903 31.207s1.102 5.23 2.599 5.23l6.79 1.456 6.791-1.456c1.464
        -.313 2.599-5.23 2.599-5.23h-9.39z"
        fill="#feca4c"
        stroke="black"
        stroke-width=".8"
        stroke-linecap="round"
        stroke-linejoin="round" />
    <path d="M21.594 31.247s.702 5.004 6.735 6.314l-6.267-1.076-2.292-5.191z"
        fill="#e1b13f" />
    <path d="M41.152 121.68a.397.397 0 0 0-.389.479s.279 1.324.752 2.664c.237.67
        .52 1.345.864 1.88.342.536.765 1 1.37 1l-.081-.01 6.79 1.456a.397.397 0
        0 0 .167 0l6.79-1.455c.564-.121.942-.586 1.278-1.13.336-.543.62-1.204.86
        -1.853.477-1.297.765-2.547.765-2.547a.397.397 0 0 0-.387-.484h-9.39z
        m.523.793h17.723c-.085.348-.224.97-.59 1.963-.227.62-.502 1.246-.79
        1.713-.289.466-.6.733-.768.77l-6.709 1.437-6.707-1.438a.397.397 0 0 0
        -.084-.008c-.143 0-.418-.19-.703-.634-.285-.446-.558-1.08-.783-1.717
        -.367-1.038-.508-1.732-.588-2.086z"
        fill="black"
    transform="translate(-21.249 -90.873)" />
    <path d="M32.514 29.859h-6.437v2.628h6.437z"
        fill="#78632b"
        stroke="black"
        stroke-width=".8"
        stroke-linecap="round"
        stroke-linejoin="round"
        paint-order="fill markers stroke" />
    <path d="m17.19 28.519 1.495 5.53 2.268.725-1.099-3.578h-1.24zM41.354 28.519
        l-1.449 5.53-2.315.725 1.1-3.578h1.239z"
        fill="#e1b13f"
        stroke="black"
        stroke-width=".8"
        stroke-linecap="round"
        stroke-linejoin="round" />
    <g stroke-width="1.118">
        <path d="M44.172 104.34a5.975 5.975 0 0 0-5.969 5.969 5.975 5.975 0 0 0
            5.969 5.969 5.975 5.975 0 0 0 5.969-5.97 5.975 5.975 0 0 0-5.969
            -5.968z"
            fill="#fada8e"
            paint-order="fill markers stroke"
            transform="translate(-16.598 -80.054) scale(.89472)" />
        <path d="M22.924 13.677v9.917M19.166 15.484v6.307M24.803 14.214v8.851
            M26.682 15.484v6.307M21.045 14.214v8.851"
            fill="none"
            stroke="#e1c174"
            stroke-width=".79361664" />
        <path d="M44.172 104.34a5.975 5.975 0 0 0-5.969 5.969 5.975 5.975 0 0 0
            5.969 5.969 5.975 5.975 0 0 0 5.969-5.97 5.975 5.975 0 0 0-5.969
            -5.968zm0 .793a5.17 5.17 0 0 1 5.176 5.176 5.17 5.17 0 0 1-5.176
            5.176 5.17 5.17 0 0 1-5.176-5.176 5.17 5.17 0 0 1 5.176-5.176z"
            color="#000"
            fill="black"
            paint-order="fill markers stroke"
            transform="translate(-16.598 -80.054) scale(.89472)" />
        <path d="M22.03 18.643a.893.893 0 0 0 .893.892.893.893 0 0 0 .893-.892
            .893.893 0 0 0-.893-.893.893.893 0 0 0-.892.893Z"
            fill="black"
            paint-order="fill markers stroke" />
    </g>
    <!--
    <path d="M95.527 91.422c-3.686 0-5.97 1.269-7.307 2.557-1.335 1.288-1.742
        2.617-1.742 2.617a.397.397 0 1 0 .76.228s.332-1.115 1.533-2.273c1.201
        -1.158 3.25-2.334 6.756-2.334 4.12 0 6.147 2.135 6.147 2.135a.397.397 0
        0 0 .572 0s2.027-2.135 6.146-2.135c3.507 0 5.548 1.175 6.743 2.332 1.194
        1.157 1.521 2.275 1.521 2.275a.397.397 0 1 0 .76-.226s-.4-1.329-1.729
        -2.617c-1.33-1.289-3.608-2.559-7.295-2.559-4.03 0-6.076 1.845-6.431 2.18
        -.354-.334-2.402-2.18-6.434-2.18z"
        color="#000"
        fill="black"
        transform="translate(-72.666 -81.711)" />
    -->
    <g stroke-width="1.118">
        <path d="M44.172 104.34a5.975 5.975 0 0 0-5.969 5.969 5.975 5.975 0 0 0
            5.969 5.969 5.975 5.975 0 0 0 5.969-5.97 5.975 5.975 0 0 0-5.969
            -5.968z"
            color="#000"
            fill="#fada8e"
            paint-order="fill markers stroke"
            transform="translate(-3.884 -80.054) scale(.89472)" />
        <path d="M35.638 13.677v9.917M31.88 15.484v6.307M37.517 14.214v8.851
            M39.396 15.484v6.307M33.759 14.214v8.851"
            fill="none"
            stroke="#e1c174"
            stroke-width=".79361664" />
        <path d="M44.172 104.34a5.975 5.975 0 0 0-5.969 5.969 5.975 5.975 0 0 0
            5.969 5.969 5.975 5.975 0 0 0 5.969-5.97 5.975 5.975 0 0 0-5.969
            -5.968zm0 .793a5.17 5.17 0 0 1 5.176 5.176 5.17 5.17 0 0 1-5.176
            5.176 5.17 5.17 0 0 1-5.176-5.176 5.17 5.17 0 0 1 5.176-5.176z"
            color="#000"
            fill="black"
            paint-order="fill markers stroke"
            transform="translate(-3.884 -80.054) scale(.89472)" />
        <path d="M34.745 18.643a.893.893 0 0 0 .892.892.893.893 0 0 0 .893-.892
            .893.893 0 0 0-.893-.893.893.893 0 0 0-.892.893Z"
            fill="black"
            paint-order="fill markers stroke" />
    </g>
</svg>
